<svg viewBox="0 0 512 512" xmlns="http://www.w3.org/2000/svg"><g fill="#7DA2CC"><path d="M181.15 225.346l64.826 50.01 .9.51 .4.22c5.6 3.12 13.02 1.46 17.97-3.98l.43-.42 79.452-94.01c4.52-5.07 4.59-12.369.19-16.29 -4.42-3.93-11.65-2.99-16.15 2.08L254.9 242.805l-57.34-39.928c-5.37-3.95-13.41-2.12-17.95 4.08 -4.54 6.18-3.87 14.4 1.51 18.34Z"/><path d="M100.44 255.99c0-3.44.07-6.87.43-10.24h-40.7c-.25 3.36-.32 6.8-.32 10.23 0 3.49.06 6.87.31 10.25h40.69c-.37-3.38-.44-6.8-.44-10.26Z"/><path d="M172.42 124.79c3.84-2.44 7.77-4.74 11.762-6.78l1.55-.76 -20.28-35.215c-5.08 2.55-10.02 5.39-14.82 8.512l20.28 35.23 1.49-1.01Z"/><path d="M82.071 165.44l35.23 20.27 8.52-14.8 -35.244-20.29c-3.12 4.79-5.95 9.72-8.52 14.8Z"/><path d="M393.98 327.814c-2.12 3.99-4.35 7.91-6.85 11.7l-1.02 1.48 35.24 20.28c3.11-4.8 5.95-9.66 8.58-14.73l-35.15-20.36 -.82 1.61Z"/><path d="M118.04 327.748l-.82-1.55 -35.16 20.28c2.5 5.07 5.39 10 8.512 14.8l35.244-20.29 -1.03-1.49c-2.43-3.8-4.73-7.71-6.76-11.77Z"/><path d="M172.42 387.127l-1.5-1.02 -20.29 35.24c4.79 3.11 9.74 6.02 14.81 8.58l20.28-35.24 -1.56-.76c-3.99-2.04-7.92-4.33-11.762-6.83Z"/><path d="M326.214 117.21l14.81 8.58 20.28-35.24c-4.8-3.12-9.68-5.96-14.73-8.512l-20.37 35.15Z"/><path d="M245.771 411.121v40.64c3.37.3 6.8.36 10.22.36 3.44 0 6.87-.07 10.238-.37v-40.65 -.43h-20.47v.42Z"/><path d="M266.23 100.87V60.22c-3.37-.31-6.8-.37-10.238-.37 -3.43 0-6.86.06-10.23.36v40.64 .42h20.46v-.43Z"/><path d="M326.214 394.774l20.36 35.16c5.05-2.65 9.93-5.48 14.73-8.59l-20.29-35.25 -14.81 8.66Z"/><path d="M429.948 165.44c-2.58-5.08-5.47-10.01-8.59-14.81l-35.24 20.28 8.6 14.79 35.22-20.28Z"/><path d="M451.82 245.757h-40.69 -.43v20.48h.42 40.69c.25-3.38.31-6.8.31-10.26 -.01-3.44-.06-6.87-.32-10.24Z"/><path d="M256 0C114.606.009.01 114.61 0 256c0 141.39 114.606 255.99 256 256 141.394-.01 255.986-114.61 255.995-256C511.985 114.61 397.394 0 256 0Zm0 478.96c-61.63-.01-117.268-24.93-157.661-65.305 -40.375-40.41-65.3-96.05-65.31-157.67 0-61.62 24.92-117.263 65.3-157.66 40.39-40.4 96.03-65.315 157.661-65.33C317.6 33 373.24 57.91 413.651 98.31c40.375 40.38 65.29 96.02 65.3 157.65 -.01 61.61-24.93 117.25-65.3 157.66 -40.41 40.38-96.043 65.29-157.661 65.3Z"/></g></svg>
