<svg width="24" height="24" viewBox="0 0 24 24" fill="none" xmlns="http://www.w3.org/2000/svg"><rect width="24" height="24" fill="none" rx="0" ry="0"></rect><path fill-rule="evenodd" clip-rule="evenodd" d="M8.6282 2.6499C7.4682 2.6499 6.5282 3.5899 6.5282 4.7499V5.1499H4.1282C3.2482 5.1499 2.5282 5.8699 2.5282 6.7499V11.7499V19.7499C2.5282 20.6299 3.2482 21.3499 4.1282 21.3499H20.1282C21.0082 21.3499 21.7282 20.6299 21.7282 19.7499V11.7499V6.7499C21.7282 5.8699 21.0082 5.1499 20.1282 5.1499H17.7282V4.7499C17.7282 3.5899 16.7882 2.6499 15.6282 2.6499C14.4682 2.6499 13.5282 3.5899 13.5282 4.7499V5.1499H10.7282V4.7499C10.7282 3.5899 9.7882 2.6499 8.6282 2.6499ZM10.7282 6.3499H13.5282V6.7499C13.5282 7.9099 14.4682 8.8499 15.6282 8.8499C16.7882 8.8499 17.7282 7.9099 17.7282 6.7499V6.3499H20.1282C20.3482 6.3499 20.5282 6.5299 20.5282 6.7499V11.1499H3.7282V6.7499C3.7282 6.5299 3.9082 6.3499 4.1282 6.3499H6.5282V6.7499C6.5282 7.9099 7.4682 8.8499 8.6282 8.8499C9.7882 8.8499 10.7282 7.9099 10.7282 6.7499V6.3499ZM16.5282 5.7499V4.7499C16.5282 4.2499 16.1282 3.8499 15.6282 3.8499C15.1282 3.8499 14.7282 4.2499 14.7282 4.7499V5.7499V6.7499C14.7282 7.2499 15.1282 7.6499 15.6282 7.6499C16.1282 7.6499 16.5282 7.2499 16.5282 6.7499V5.7499ZM9.5282 5.7499V4.7499C9.5282 4.2499 9.1282 3.8499 8.6282 3.8499C8.1282 3.8499 7.7282 4.2499 7.7282 4.7499V5.7499V6.7499C7.7282 7.2499 8.1282 7.6499 8.6282 7.6499C9.1282 7.6499 9.5282 7.2499 9.5282 6.7499V5.7499ZM3.7282 12.3499V19.7499C3.7282 19.9699 3.9082 20.1499 4.1282 20.1499H20.1282C20.3482 20.1499 20.5282 19.9699 20.5282 19.7499V12.3499H3.7282ZM6.6282 14.1499H5.6282C5.2982 14.1499 5.0282 14.4199 5.0282 14.7499C5.0282 15.0799 5.2982 15.3499 5.6282 15.3499H6.6282C6.9582 15.3499 7.2282 15.0799 7.2282 14.7499C7.2282 14.4199 6.9582 14.1499 6.6282 14.1499ZM9.6282 14.1499C9.2982 14.1499 9.0282 14.4199 9.0282 14.7499C9.0282 15.0799 9.2982 15.3499 9.6282 15.3499H10.6282C10.9582 15.3499 11.2282 15.0799 11.2282 14.7499C11.2282 14.4199 10.9582 14.1499 10.6282 14.1499H9.6282ZM14.6282 14.1499C14.9582 14.1499 15.2282 14.4199 15.2282 14.7499C15.2282 15.0799 14.9582 15.3499 14.6282 15.3499H13.6282C13.2982 15.3499 13.0282 15.0799 13.0282 14.7499C13.0282 14.4199 13.2982 14.1499 13.6282 14.1499H14.6282ZM17.6282 15.3499H18.6282C18.9582 15.3499 19.2282 15.0799 19.2282 14.7499C19.2282 14.4199 18.9582 14.1499 18.6282 14.1499H17.6282C17.2982 14.1499 17.0282 14.4199 17.0282 14.7499C17.0282 15.0799 17.2982 15.3499 17.6282 15.3499ZM6.6282 17.1499H5.6282C5.2982 17.1499 5.0282 17.4199 5.0282 17.7499C5.0282 18.0799 5.2982 18.3499 5.6282 18.3499H6.6282C6.9582 18.3499 7.2282 18.0799 7.2282 17.7499C7.2282 17.4199 6.9582 17.1499 6.6282 17.1499ZM9.6282 17.1499C9.2982 17.1499 9.0282 17.4199 9.0282 17.7499C9.0282 18.0799 9.2982 18.3499 9.6282 18.3499H10.6282C10.9582 18.3499 11.2282 18.0799 11.2282 17.7499C11.2282 17.4199 10.9582 17.1499 10.6282 17.1499H9.6282ZM14.6282 17.1499C14.9582 17.1499 15.2282 17.4199 15.2282 17.7499C15.2282 18.0799 14.9582 18.3499 14.6282 18.3499H13.6282C13.2982 18.3499 13.0282 18.0799 13.0282 17.7499C13.0282 17.4199 13.2982 17.1499 13.6282 17.1499H14.6282ZM18.6282 17.1499H17.6282C17.2982 17.1499 17.0282 17.4199 17.0282 17.7499C17.0282 18.0799 17.2982 18.3499 17.6282 18.3499H18.6282C18.9582 18.3499 19.2282 18.0799 19.2282 17.7499C19.2282 17.4199 18.9582 17.1499 18.6282 17.1499Z" fill="#7da2cc"></path></svg>