<svg width="24" height="24" viewBox="0 0 24 24" fill="none" xmlns="http://www.w3.org/2000/svg"><rect width="24" height="24" fill="none" rx="0" ry="0"></rect><path fill-rule="evenodd" clip-rule="evenodd" d="M22 12C22 17.5228 17.5228 22 12 22C6.47715 22 2 17.5228 2 12C2 6.47715 6.47715 2 12 2C17.5228 2 22 6.47715 22 12ZM14.3 6.62001C13.73 6.05001 12.98 5.76001 12.07 5.76001C11.17 5.76001 10.41 6.04001 9.80999 6.60001C9.57999 6.81001 9.37999 7.06001 9.23999 7.32001C9.08999 7.58001 8.98999 7.87001 8.91999 8.18001C8.85999 8.48001 8.84999 8.78001 8.84999 9.15001C8.83999 9.45001 8.94999 9.74001 9.14999 9.94001C9.32999 10.13 9.57999 10.23 9.83999 10.23C10.4 10.23 10.84 9.79001 10.84 9.23001V8.85001C10.85 8.49001 10.95 8.23001 11.16 8.02001C11.36 7.82001 11.66 7.72001 12.06 7.72001C12.43 7.72001 12.69 7.81001 12.86 7.99001C13.05 8.18001 13.14 8.47001 13.14 8.86001C13.14 9.10001 13.12 9.30001 13.07 9.44001C13.02 9.60001 12.94 9.74001 12.85 9.87001C12.74 10.02 12.5 10.27 12.14 10.6C11.67 11.02 11.33 11.44 11.14 11.82C10.95 12.22 10.84 12.72 10.83 13.31L10.82 13.74C10.82 14.3 11.26 14.74 11.82 14.74C12.38 14.74 12.82 14.3 12.82 13.74C12.84 13.62 12.84 13.48 12.84 13.33C12.84 12.76 13.01 12.38 13.42 12.07C14.08 11.49 14.51 11 14.75 10.53C15.01 10.04 15.15 9.48001 15.15 8.87001C15.15 7.96001 14.87 7.21001 14.3 6.62001ZM11.8401 18.24C12.3924 18.24 12.8401 17.7923 12.8401 17.24C12.8401 16.6877 12.3924 16.24 11.8401 16.24C11.2878 16.24 10.8401 16.6877 10.8401 17.24C10.8401 17.7923 11.2878 18.24 11.8401 18.24Z" fill="#ffffff"></path></svg>