<svg width="24" height="24" viewBox="0 0 24 24" fill="none" xmlns="http://www.w3.org/2000/svg"><rect width="24" height="24" fill="none" rx="0" ry="0"></rect><path fill-rule="evenodd" clip-rule="evenodd" d="M11.4399 15.3452C11.4999 15.3652 11.5699 15.3752 11.6299 15.3752C11.8799 15.3752 12.1199 15.2152 12.1999 14.9652C12.2999 14.6452 12.1299 14.3052 11.8199 14.2052C11.3499 14.0452 10.9299 13.7852 10.5699 13.4152C10.1999 13.0552 9.9399 12.6452 9.7799 12.1552C9.6599 11.8252 9.5999 11.4652 9.5999 11.0952C9.5999 10.2152 9.9399 9.38518 10.5699 8.75518L15.1599 4.15518C16.4499 2.87518 18.5399 2.87518 19.8299 4.15518C20.4499 4.78518 20.7899 5.61518 20.7899 6.49518C20.7899 7.37518 20.4499 8.20518 19.8299 8.82518L16.7399 11.9052C16.5099 12.1452 16.5099 12.5252 16.7399 12.7552C16.9799 12.9852 17.3599 12.9852 17.5899 12.7552L20.6799 9.67518C21.5299 8.83518 21.9999 7.69518 21.9999 6.49518C21.9999 5.29518 21.5299 4.16518 20.6899 3.30518C18.9299 1.55518 16.0799 1.55518 14.3199 3.30518L9.7299 7.90518C8.8699 8.75518 8.3999 9.88518 8.3999 11.0952C8.3999 11.6152 8.4899 12.1152 8.6499 12.5552C8.8599 13.1952 9.2399 13.7952 9.7199 14.2652C10.1999 14.7552 10.7999 15.1352 11.4399 15.3452ZM3.32 20.6851C4.2 21.5551 5.35 21.9951 6.5 21.9951C7.65 21.9951 8.81 21.5551 9.69 20.7051L14.28 16.1051C15.14 15.2551 15.61 14.1251 15.61 12.9151C15.61 12.4551 15.54 11.9951 15.4 11.5551C15.17 10.8651 14.8 10.2551 14.28 9.73509C13.76 9.21509 13.15 8.84509 12.46 8.61509C12.14 8.51509 11.8 8.68509 11.7 8.99509C11.6 9.30509 11.77 9.64509 12.1 9.75509C12.61 9.91509 13.06 10.1951 13.44 10.5751C13.82 10.9551 14.09 11.4051 14.26 11.9151C14.36 12.2351 14.41 12.5651 14.41 12.9051C14.41 13.7951 14.06 14.6251 13.43 15.2451L8.84 19.8451C7.55 21.1251 5.46 21.1251 4.17 19.8451C3.55 19.2151 3.21 18.3951 3.21 17.5051C3.21 16.6151 3.55 15.7851 4.17 15.1651L7.35 11.9851C7.58 11.7451 7.59 11.3651 7.35 11.1351C7.11 10.9051 6.73 10.9051 6.5 11.1351L3.32 14.3151C2.47 15.1551 2 16.2851 2 17.4951C2 18.7051 2.47 19.8351 3.32 20.6851Z" fill="#ffffff"></path></svg>